<svg width="264" height="264" viewBox="0 0 264 264" fill="none" xmlns="http://www.w3.org/2000/svg">
<path d="M131.57 263.14C204.234 263.14 263.14 204.234 263.14 131.57C263.14 58.9059 204.234 0 131.57 0C58.9059 0 0 58.9059 0 131.57C0 204.234 58.9059 263.14 131.57 263.14Z" fill="#7D00FF"/>
<mask id="mask0_3986_57" style="mask-type:luminance" maskUnits="userSpaceOnUse" x="56" y="90" width="151" height="101">
<path d="M56.5703 90.9375H206.57V190.937H56.5703V90.9375Z" fill="white"/>
</mask>
<g mask="url(#mask0_3986_57)">
<path d="M206.57 90.9375H156.577V107.601H206.57V90.9375ZM123.237 107.601H106.574V124.274H123.237V107.601ZM106.574 190.937H123.237V140.937H106.574V190.937ZM139.903 107.601V124.274H156.577V107.601H139.903ZM139.903 190.937H156.577V140.937H139.903V190.937ZM139.903 90.9375H123.237V107.601H139.903V90.9375ZM56.5703 90.9375V107.601H106.574V90.9375H56.5703ZM206.57 140.937V124.274H156.577V140.937H206.57ZM123.237 124.274V140.937H139.903V124.274H123.237ZM56.5703 124.274V140.937H106.574V124.274H56.5703Z" fill="white"/>
</g>
</svg>
