<svg width="22" height="22" viewBox="0 0 22 22" fill="none" xmlns="http://www.w3.org/2000/svg">
<g id="verus-icon-blue 4" clip-path="url(#clip0_1_32)">
<g id="Clip path group">
<mask id="mask0_1_32" style="mask-type:luminance" maskUnits="userSpaceOnUse" x="0" y="0" width="22" height="22">
<g id="a">
<path id="Vector" d="M0 0H21.9824V21.9824H0V0Z" fill="white"/>
</g>
</mask>
<g mask="url(#mask0_1_32)">
<g id="Group">
<path id="Vector_2" d="M10.852 19.8355C15.6314 19.8355 19.5058 15.6904 19.5058 10.5772C19.5058 5.46402 15.6314 1.31895 10.852 1.31895C6.07266 1.31895 2.19823 5.46402 2.19823 10.5772C2.19823 15.6904 6.07266 19.8355 10.852 19.8355Z" fill="white"/>
<path id="Vector_3" fill-rule="evenodd" clip-rule="evenodd" d="M10.9923 0C17.0592 0 21.9847 4.92499 21.9847 10.9912C21.9847 17.0574 17.0592 21.9824 10.9923 21.9824C4.92549 21.9824 0 17.0574 0 10.9912C0 4.92499 4.92549 0 10.9923 0ZM5.60311 3.9758C6.01824 3.62037 6.60069 3.32844 7.10705 3.53401C8.01755 3.90368 10.4638 8.83514 10.4638 8.83514C10.4638 8.83514 13.8857 3.97427 15.1147 3.53103C15.5339 3.37982 16.1087 3.64577 16.5471 3.97351C18.0857 5.12368 18.2447 6.72836 18.1117 7.17353C17.9445 7.73321 9.44491 18.5166 9.44491 18.5166C9.19072 18.4129 4.15462 9.06669 3.88171 7.4675C3.6209 5.93924 4.50826 4.90086 5.60311 3.9758Z" fill="#3165D4"/>
</g>
</g>
</g>
</g>
<defs>
<clipPath id="clip0_1_32">
<rect width="22" height="22" fill="white"/>
</clipPath>
</defs>
</svg>
